HIERARCHY
ROOT Hips
{
  OFFSET 0.000000 0.000000 0.000000
  CHANNELS 6 Xposition Yposition Zposition Xrotation Yrotation Zrotation
  JOINT Spine
  {
    OFFSET 1.277922 23.685776 -1.473739
    CHANNELS 3 Xrotation Yrotation Zrotation
    JOINT Chest
    {
      OFFSET 1.277922 23.685776 -1.473739
      CHANNELS 3 Xrotation Yrotation Zrotation
      JOINT Neck
      {
        OFFSET 0.453308 4.227248 -8.323683
        CHANNELS 3 Xrotation Yrotation Zrotation
        JOINT Head
        {
          OFFSET 0.628759 3.735021 -12.486105
          CHANNELS 3 Xrotation Yrotation Zrotation
          End Site
          {
            OFFSET 0.188628 1.120506 -3.745832
          }
        }
      }
      JOINT LeftCollar
      {
        OFFSET 3.000000 4.000000 0.000000
        CHANNELS 3 Xrotation Yrotation Zrotation
        JOINT LeftShoulder
        {
          OFFSET 15.589172 -3.940868 -1.613959
          CHANNELS 3 Xrotation Yrotation Zrotation
          JOINT LeftArm
          {
            OFFSET 1.009262 -19.267075 -10.059340
            CHANNELS 3 Xrotation Yrotation Zrotation
            JOINT LeftForeArm
            {
              OFFSET -7.551586 9.126048 -14.273645
              CHANNELS 3 Xrotation Yrotation Zrotation
              JOINT LeftHand
              {
                OFFSET -2.601524 3.809930 -1.584078
                CHANNELS 3 Xrotation Yrotation Zrotation
                End Site
                {
                  OFFSET -0.780457 1.142979 -0.475223
                }
              }
            }
          }
        }
      }
      JOINT RightCollar
      {
        OFFSET -3.000000 4.000000 0.000000
        CHANNELS 3 Xrotation Yrotation Zrotation
        JOINT RightShoulder
        {
          OFFSET -15.589172 3.940868 1.613959
          CHANNELS 3 Xrotation Yrotation Zrotation
          JOINT RightArm
          {
            OFFSET 0.369772 -24.896812 -13.866074
            CHANNELS 3 Xrotation Yrotation Zrotation
            JOINT RightForeArm
            {
              OFFSET 7.064691 11.192793 -19.148022
              CHANNELS 3 Xrotation Yrotation Zrotation
              JOINT RightHand
              {
                OFFSET 3.786626 5.224959 -4.202100
                CHANNELS 3 Xrotation Yrotation Zrotation
                End Site
                {
                  OFFSET 1.135988 1.567488 -1.260630
                }
              }
            }
          }
        }
      }
    }
  }
  JOINT LeftUpLeg
  {
    OFFSET 9.460444 -0.159481 1.370640
    CHANNELS 3 Xrotation Yrotation Zrotation
    JOINT LeftLeg
    {
      OFFSET 11.476000 -40.598035 -6.922701
      CHANNELS 3 Xrotation Yrotation Zrotation
      JOINT LeftFoot
      {
        OFFSET 10.718289 -38.308795 9.459754
        CHANNELS 3 Xrotation Yrotation Zrotation
        End Site
        {
          OFFSET 3.215487 -11.492639 2.837926
        }
      }
    }
  }
  JOINT RightUpLeg
  {
    OFFSET -9.460444 0.159481 -1.370640
    CHANNELS 3 Xrotation Yrotation Zrotation
    JOINT RightLeg
    {
      OFFSET -1.472079 -34.936613 11.400775
      CHANNELS 3 Xrotation Yrotation Zrotation
      JOINT RightFoot
      {
        OFFSET -12.155832 -39.708799 24.011806
        CHANNELS 3 Xrotation Yrotation Zrotation
        End Site
        {
          OFFSET -3.646750 -11.912640 7.203542
        }
      }
    }
  }
}
MOTION
Frames: 18
Frame Time: 0.083333
3.224765 62.972526 -0.643269 2.990817 -0.035001 3.464497 0.000000 0.000000 0.000000 -4.337865 1.019511 -3.196618 -0.001307 0.257793 -0.074796 172.105418 1.058195 -12.738371 3.493281 4.059844 3.057237 3.241486 -8.706197 2.207289 -3.028187 4.028708 -5.065799 0.000000 0.000000 0.000000 0.000000 0.000000 0.000000 3.493281 4.059844 3.057237 -1.317357 -6.008012 -2.795058 -1.122843 0.590756 -0.845976 0.000000 0.000000 0.000000 0.000000 0.000000 0.000000 -8.272258 -0.849467 -8.135724 0.342601 -1.553630 0.758209 0.000000 0.000000 0.000000 6.679205 -0.477372 -2.077517 -3.900961 3.704132 7.257129 0.000000 0.000000 0.000000
2.920625 63.094147 -2.076392 1.802927 0.088229 3.804454 0.000000 0.000000 0.000000 -3.204883 1.619742 -3.208112 0.048568 0.419858 -0.183011 171.531071 -2.895597 -13.342636 5.319453 7.459514 2.999193 -0.879114 -14.565979 5.100758 -7.732688 7.617251 -6.684065 0.000000 0.000000 0.000000 0.000000 0.000000 0.000000 5.319453 7.459514 2.999193 -2.517603 -8.897974 -5.671956 -3.028145 -0.899936 1.409875 0.000000 0.000000 0.000000 0.000000 0.000000 0.000000 -6.669311 -1.088538 -10.025627 -1.309997 -1.571468 3.186424 0.000000 0.000000 0.000000 8.359146 -0.868292 -2.589656 -2.149526 3.030077 6.777906 0.000000 0.000000 0.000000
2.888335 63.590523 -2.793396 0.060838 0.336922 5.241304 0.000000 0.000000 0.000000 -1.855858 2.255139 -4.303291 0.183772 0.536414 -0.316416 170.441583 -3.746383 -14.453234 6.892017 8.956097 4.324581 -9.057732 -18.937120 10.304450 -14.638474 14.975974 -10.803164 0.000000 0.000000 0.000000 0.000000 0.000000 0.000000 6.892017 8.956097 4.324581 -4.053041 -9.246475 -9.927239 -3.768912 -2.450420 3.882832 0.000000 0.000000 0.000000 0.000000 0.000000 0.000000 -2.301656 -0.547491 -14.154690 -9.609617 -2.625360 10.331823 0.000000 0.000000 0.000000 10.468976 -1.955656 -5.284825 0.512334 1.612911 7.003620 0.000000 0.000000 0.000000
3.123907 64.292882 -2.557669 -1.117658 0.639409 8.050178 0.000000 0.000000 0.000000 -1.253782 2.505109 -7.011262 0.308427 0.506701 -0.393528 169.984720 -3.916760 -16.261190 7.591526 7.671621 6.418371 -20.660114 -18.033008 15.841608 -15.271642 21.426154 -17.253385 0.000000 0.000000 0.000000 0.000000 0.000000 0.000000 7.591526 7.671621 6.418371 -4.751446 -6.528380 -14.478181 -3.196121 -4.423868 6.041887 0.000000 0.000000 0.000000 0.000000 0.000000 0.000000 5.902784 1.593352 -19.104765 -26.474343 -4.925910 22.050479 0.000000 0.000000 0.000000 12.034939 -3.242654 -9.498512 3.700680 0.142213 9.226852 0.000000 0.000000 0.000000
3.378563 64.568605 -1.859842 -0.131898 0.683326 11.136292 0.000000 0.000000 0.000000 -2.662149 3.005975 -10.128632 0.410132 0.469826 -0.409673 170.972344 -5.327609 -17.743326 7.363552 7.551714 7.324395 -30.410871 -16.629420 19.649954 -8.251384 22.558553 -24.380687 0.000000 0.000000 0.000000 0.000000 0.000000 0.000000 7.363552 7.551714 7.324395 -4.028347 -6.947392 -15.027162 -3.885295 -4.532202 5.503672 0.000000 0.000000 0.000000 0.000000 0.000000 0.000000 10.652317 4.418489 -23.774439 -36.360601 -5.445145 33.155594 0.000000 0.000000 0.000000 10.760590 -3.355343 -13.022703 4.890873 -0.806682 10.422297 0.000000 0.000000 0.000000
3.461069 64.641953 -1.538457 3.406990 0.238402 13.317016 0.000000 0.000000 0.000000 -5.306500 4.504990 -12.056484 0.259329 0.453464 -0.505859 172.214227 -4.090070 -18.824446 6.708278 6.427414 8.004462 -26.987177 -16.804672 18.722720 -17.359473 25.367159 -20.871028 0.000000 0.000000 0.000000 0.000000 0.000000 0.000000 6.708278 6.427414 8.004462 -4.167283 -7.461114 -13.300575 -3.519666 -2.869812 3.089158 0.000000 0.000000 0.000000 0.000000 0.000000 0.000000 9.472571 5.012078 -25.086046 -27.908338 -4.344269 35.058162 0.000000 0.000000 0.000000 9.973302 -3.310967 -15.003638 4.338664 -0.680044 11.367213 0.000000 0.000000 0.000000
3.285148 65.754948 -3.332488 5.137412 -0.031925 14.281148 0.000000 0.000000 0.000000 -6.259390 5.353734 -12.786725 0.146716 0.355855 -0.596834 172.837718 -5.396009 -18.676895 6.810785 7.166954 8.464828 -23.050291 -18.100277 16.931677 -16.919520 23.245906 -19.838205 0.000000 0.000000 0.000000 0.000000 0.000000 0.000000 6.810785 7.166954 8.464828 -6.780098 -8.020600 -12.899944 -2.822638 -1.747344 1.962116 0.000000 0.000000 0.000000 0.000000 0.000000 0.000000 8.481679 3.257607 -20.806816 -18.090061 -4.418783 21.038825 0.000000 0.000000 0.000000 11.977839 -3.921506 -14.513682 1.706628 0.186981 11.686358 0.000000 0.000000 0.000000
3.195444 68.236140 -7.290495 3.764603 0.181605 13.637205 0.000000 0.000000 0.000000 -5.099644 4.271562 -12.376934 0.361404 0.517556 -0.422424 172.013816 -7.604589 -17.273217 7.230568 8.803759 7.615321 -16.723274 -20.149090 15.216331 -9.394440 18.101493 -20.396264 0.000000 0.000000 0.000000 0.000000 0.000000 0.000000 7.230568 8.803759 7.615321 -10.040431 -7.960580 -12.916149 -1.441591 -1.830903 2.555229 0.000000 0.000000 0.000000 0.000000 0.000000 0.000000 1.344397 0.226446 -13.922018 -4.019098 -1.087742 8.055692 0.000000 0.000000 0.000000 14.816650 -3.949524 -9.986674 -3.637051 1.908145 9.878368 0.000000 0.000000 0.000000
4.164337 70.216393 -10.965803 1.243710 0.515205 10.749549 0.000000 0.000000 0.000000 -3.546060 2.237651 -10.042658 0.563721 0.896454 -0.113022 173.061508 -4.615155 -14.187658 5.395924 5.745754 5.235088 -7.659006 -15.885346 13.311046 -0.424191 11.306261 -18.650574 0.000000 0.000000 0.000000 0.000000 0.000000 0.000000 5.395924 5.745754 5.235088 -7.090001 -3.791894 -11.232507 -5.720333 -3.353386 3.717189 0.000000 0.000000 0.000000 0.000000 0.000000 0.000000 -10.315514 -1.489501 -5.732194 8.939036 2.207783 -1.513263 0.000000 0.000000 0.000000 14.575442 -1.835120 -2.464935 -12.923656 4.417892 6.173580 0.000000 0.000000 0.000000
5.674507 70.376590 -11.970534 2.575775 0.115293 5.268586 0.000000 0.000000 0.000000 -5.013719 1.424767 -4.923326 0.482161 1.281218 0.128328 172.154174 0.809808 -11.341701 2.763351 0.452126 2.272614 0.468491 -7.020469 11.975948 0.722481 7.411072 -13.855807 0.000000 0.000000 0.000000 0.000000 0.000000 0.000000 2.763351 0.452126 2.272614 -6.854134 4.078116 -9.858517 -17.996348 -7.359161 3.228557 0.000000 0.000000 0.000000 0.000000 0.000000 0.000000 -13.982603 -2.030461 -1.088286 12.357475 2.369529 -4.487579 0.000000 0.000000 0.000000 11.586797 -0.424011 0.802607 -20.466812 4.761155 3.305803 0.000000 0.000000 0.000000
7.106460 70.541663 -12.165292 4.495104 -0.233150 0.158953 0.000000 0.000000 0.000000 -6.767674 -0.520245 -0.585669 0.442391 0.776998 0.365920 168.295090 10.852068 -6.095719 0.331539 -7.447674 -2.986133 0.162536 4.098630 17.539357 5.272691 4.151557 -13.630350 0.000000 0.000000 0.000000 0.000000 0.000000 0.000000 0.331539 -7.447674 -2.986133 -13.627248 15.989011 -9.554144 -47.745546 -16.882683 -1.067036 0.000000 0.000000 0.000000 0.000000 0.000000 0.000000 -8.199189 -1.140598 4.395930 2.810429 -1.370605 -6.389958 0.000000 0.000000 0.000000 9.015633 -0.154323 2.678968 -25.365762 -1.829748 -3.057666 0.000000 0.000000 0.000000
7.880336 71.614852 -9.885154 4.749125 -0.338193 -5.744134 0.000000 0.000000 0.000000 -6.483727 -3.651111 4.184910 0.172278 0.047333 0.683248 162.456381 25.806862 3.963733 -1.808046 -24.379879 -10.620063 -10.141743 19.436761 32.456368 17.004540 0.215136 -18.434095 0.000000 0.000000 0.000000 0.000000 0.000000 0.000000 -1.808046 -24.379879 -10.620063 -27.761341 31.532438 -2.322196 -82.861118 -25.042538 -14.116985 0.000000 0.000000 0.000000 0.000000 0.000000 0.000000 -6.936480 -0.983831 8.600002 2.191344 -5.500292 -11.342712 0.000000 0.000000 0.000000 5.599532 0.397720 8.791121 -27.677524 -14.043423 -14.100209 0.000000 0.000000 0.000000
8.305104 72.724448 -5.758687 5.693374 -0.492487 -13.689967 0.000000 0.000000 0.000000 -5.801834 -5.861369 11.369814 -0.310870 -0.977840 0.842228 154.833785 33.004620 14.489051 -0.195377 -40.915555 -19.673546 -26.386205 30.393253 50.967856 26.593936 -3.231878 -21.345037 0.000000 0.000000 0.000000 0.000000 0.000000 0.000000 -0.195377 -40.915555 -19.673546 -47.890799 38.968523 15.100832 -98.624637 -22.377054 -26.040971 0.000000 0.000000 0.000000 0.000000 0.000000 0.000000 -8.747946 -2.448630 6.345475 14.931112 -13.398631 -28.068248 0.000000 0.000000 0.000000 4.901403 1.735456 19.164124 -18.948429 -18.908489 -13.601740 0.000000 0.000000 0.000000
8.213879 73.245624 -2.394181 5.186706 -0.654374 -21.726727 0.000000 0.000000 0.000000 -3.861894 -6.594762 19.165064 -0.685815 -1.816780 0.824434 153.424198 32.229586 17.469792 1.803727 -50.689619 -25.604690 -35.903302 37.009098 58.208086 24.162447 -2.173796 -18.021740 0.000000 0.000000 0.000000 0.000000 0.000000 0.000000 1.803727 -50.689619 -25.604690 -61.185891 41.431846 28.290039 -108.535530 -18.828891 -33.938806 0.000000 0.000000 0.000000 0.000000 0.000000 0.000000 -11.628797 -4.437331 1.206446 27.759469 -18.598213 -37.283442 0.000000 0.000000 0.000000 3.174476 2.011173 26.069402 6.669239 -13.822504 -8.073474 0.000000 0.000000 0.000000
6.698255 73.685781 -1.734017 4.959604 -0.794374 -27.947687 0.000000 0.000000 0.000000 -2.913666 -6.327244 25.551870 -0.723822 -1.947273 0.710949 157.856075 26.511076 13.403612 -1.925603 -42.851651 -20.612210 -28.502635 38.008092 38.960485 28.060769 -2.885105 -7.275716 0.000000 0.000000 0.000000 0.000000 0.000000 0.000000 -1.925603 -42.851651 -20.612210 -48.239291 45.682142 14.728856 -97.825798 -27.218500 -27.100233 0.000000 0.000000 0.000000 0.000000 0.000000 0.000000 -8.686811 -3.432890 16.289356 3.121194 1.016456 17.954076 0.000000 0.000000 0.000000 6.246810 -2.441396 6.821358 2.338758 -26.116985 -26.338321 0.000000 0.000000 0.000000
3.632711 74.540334 -3.100434 5.537352 -0.731447 -30.766195 0.000000 0.000000 0.000000 -2.507139 -6.124910 28.422386 -0.964725 -0.999896 0.918360 162.300552 22.384549 10.027190 -2.852920 -36.595909 -20.111013 -23.607309 33.862394 33.308287 22.058887 -2.920046 -4.702778 0.000000 0.000000 0.000000 0.000000 0.000000 0.000000 -2.852920 -36.595909 -20.111013 -40.992592 42.355288 8.367879 -76.531775 -36.896297 -12.461898 0.000000 0.000000 0.000000 0.000000 0.000000 0.000000 -6.125918 -1.559693 23.337509 0.008591 -0.920369 5.079260 0.000000 0.000000 0.000000 4.214651 -3.970255 6.319332 3.678585 -14.030833 -12.895490 0.000000 0.000000 0.000000
0.467863 75.256072 -5.052805 7.149929 -0.388817 -29.169998 0.000000 0.000000 0.000000 -3.415791 -6.791801 26.725516 -1.174837 -0.654260 1.048934 161.160271 20.402316 12.794444 -3.471479 -31.546454 -18.210702 -14.890868 32.402987 26.873731 8.670485 -3.759488 -3.962759 0.000000 0.000000 0.000000 0.000000 0.000000 0.000000 -3.471479 -31.546454 -18.210702 -32.208512 40.112087 4.488330 -46.955026 -36.588505 4.863810 0.000000 0.000000 0.000000 0.000000 0.000000 0.000000 -5.019459 -0.879034 24.555952 -6.578906 -3.378678 -3.052762 0.000000 0.000000 0.000000 2.511413 -3.532327 8.964557 1.978077 -8.398501 -5.527488 0.000000 0.000000 0.000000
-1.488197 75.281609 -6.308760 8.063108 -0.211833 -25.685026 0.000000 0.000000 0.000000 -4.659663 -7.095453 23.257908 -1.208830 -0.817609 0.977468 159.769848 18.427451 14.457899 -3.908827 -28.263456 -17.808869 -12.103000 30.590751 22.248400 3.061078 -5.238107 -1.017536 0.000000 0.000000 0.000000 0.000000 0.000000 0.000000 -3.908827 -28.263456 -17.808869 -25.237105 38.205666 3.005721 -15.308204 -26.642626 17.748649 0.000000 0.000000 0.000000 0.000000 0.000000 0.000000 -5.742546 -1.872196 24.383691 -7.944892 -3.176955 -5.996916 0.000000 0.000000 0.000000 2.909480 -1.738244 12.249204 -2.686290 -4.480820 0.150597 0.000000 0.000000 0.000000
